<?xml version="1.0" encoding="UTF-8" standalone="no"?>
<svg
   xmlns:dc="http://purl.org/dc/elements/1.1/"
   xmlns:cc="http://creativecommons.org/ns#"
   xmlns:rdf="http://www.w3.org/1999/02/22-rdf-syntax-ns#"
   xmlns:svg="http://www.w3.org/2000/svg"
   xmlns="http://www.w3.org/2000/svg"
   xmlns:xlink="http://www.w3.org/1999/xlink"
   xmlns:sodipodi="http://sodipodi.sourceforge.net/DTD/sodipodi-0.dtd"
   xmlns:inkscape="http://www.inkscape.org/namespaces/inkscape"
   version="1.1"
   id="svg3713"
   width="3451"
   height="1411"
   viewBox="0 0 3451 1411"
   sodipodi:docname="logo-large.svg"
   inkscape:version="0.92.3 (2405546, 2018-03-11)">
  <path
     style="fill:#000000"
     d="M 245.7339,1408.5684 C 217.85351,1398.6202 186,1347.1883 186,1312.1197 c 0,-4.6748 1.306,-12.4025 3.97222,-23.504 11.60846,-48.3349 29.15514,-126.736 42.54913,-190.1157 15.09343,-71.4213 48.95107,-243.36091 48.091,-244.22098 -0.17549,-0.17549 -8.14756,-1.67131 -17.71571,-3.32403 -25.79069,-4.45488 -44.61983,-8.40318 -71.39664,-14.97121 -43.40558,-10.64688 -50.06438,-13.20721 -58.85923,-22.63159 -2.82743,-3.0298 -7.66239,-7.2925 -10.74438,-9.47266 -5.94891,-4.2082 -8.32047,-7.42694 -7.73498,-10.49809 0.58173,-3.05148 10.28501,-3.01053 21.83859,0.0922 32.1633,8.63738 46.45694,11.46657 78,15.43877 30.26419,3.81115 72.81871,7.18998 73.6483,5.84767 1.12956,-1.82767 14.98328,-76.0617 28.67424,-153.6486 l 5.36235,-30.38856 -8.59244,0.60486 C 252.05819,635.62423 198.72985,634.45016 157.5,627.90224 66.521653,613.45351 14.221938,575.4896 2.3426897,515.27488 -0.01037034,503.34746 0.03908926,479.06357 2.4439854,465.54031 11.627062,413.90183 43.509237,356.36517 95.558365,297.5 108.49206,282.87259 138.38343,253.19534 154.67288,238.80893 296.93915,113.16324 490.52528,26.992743 677.5,6.0842277 712.13012,2.2117024 725.07098,1.5381289 764.5,1.5558676 805.38034,1.5742592 822.26677,2.6476105 852,7.1176251 957.88217,23.03567 1039.872,67.487572 1092.4854,137.5 c 31.8721,42.41202 51.4257,92.69025 58.1418,149.5 2.0812,17.60419 2.3258,55.88327 0.4697,73.5 C 1138.1997,482.90876 1071.7427,599.65435 963.5,690.053 840.90906,792.43457 673.17132,852.88106 480.53677,864.09512 c -17.91105,1.04268 -99.40143,0.87947 -103.4991,-0.20729 -1.70636,-0.45255 -2.5485,3.22235 -18.93148,82.61217 -23.1117,111.9963 -47.03422,237.7783 -76.11824,400.2213 -5.43779,30.3718 -10.37468,56.1328 -10.97086,57.2468 -2.86698,5.357 -16.30839,7.8027 -25.28319,4.6003 z M 417,815.99716 c 56.67551,-2.15635 98.96452,-6.83227 145,-16.03273 C 703.75398,771.63407 818.20238,704.42784 893.90966,605.06093 933.42212,553.20024 960.65951,492.30397 970.86822,433 c 3.94566,-22.92095 4.63327,-31.98309 4.55261,-60 -0.0663,-23.01696 -0.4361,-29.81863 -2.26871,-41.723 C 968.64347,301.98946 961.02844,277.15174 948.99977,252.5 916.25309,185.38845 855.8689,140.00475 776.82175,123.09402 752.27434,117.84254 731.61995,115.8655 701.5,115.88421 c -25.87994,0.0161 -37.42501,0.81866 -67.1709,4.66953 C 477.15553,140.90127 335.50975,194.3467 234,271.6049 215.24036,285.88271 203.90599,295.74031 186.62398,312.80825 132.58482,366.17802 104,421.23216 104,471.94137 c 0,30.76315 11.04779,56.43976 33.53328,77.93603 30.31113,28.97763 76.45888,45.46814 142.96672,51.08798 13.98288,1.18154 46.49725,1.38053 46.50597,0.28462 0.003,-0.4125 1.58801,-9.75 3.5216,-20.75 1.9336,-11 9.37856,-54.875 16.54437,-97.5 26.65705,-158.56659 29.74664,-175.8147 32.4185,-180.9815 2.06893,-4.00089 7.9377,-8.77947 12.24298,-9.96874 26.7995,-7.40296 128.20077,-32.03211 130.01031,-31.57794 1.28805,0.32328 2.5939,1.24446 2.9019,2.04708 0.91927,2.3956 -2.28921,15.0358 -13.32136,52.4811 -5.75247,19.525 -13.10656,44.5 -16.34242,55.5 -8.47647,28.81491 -20.69097,72.67215 -30.57449,109.78038 C 455.79825,512.60376 436,590.57443 436,592.15595 c 0,1.39919 2.82764,0.99304 18.5,-2.6573 23.31946,-5.43146 43.26621,-11.04326 64.38857,-18.115 10.66371,-3.57021 20.02062,-6.24874 20.79312,-5.9523 2.59198,0.99463 -0.2386,3.92366 -8.5961,8.89506 -21.15076,12.58138 -54.26356,25.67526 -86.46348,34.19049 -7.08283,1.87304 -13.12541,3.65307 -13.42795,3.95561 C 430.2685,613.39817 385,813.53403 385,816.7008 c 0,0.44787 4.11087,0.35747 32,-0.70364 z m 1203,444.37844 c -25.9827,-3.2811 -49.6476,-11.8697 -69.7441,-25.3121 -14.3946,-9.6284 -26.0811,-22.3844 -39.7154,-43.3499 -18.7651,-28.8552 -28.8119,-65.9434 -31.4265,-116.0118 -0.4824,-9.2391 -1.0577,-16.9788 -1.2784,-17.1995 -0.2207,-0.2207 -2.3576,4.1885 -4.7488,9.7982 -16.0453,37.6432 -38.6192,64.6159 -61.7831,73.8223 -5.0097,1.9911 -7.5822,2.3076 -18.8037,2.3138 -10.985,0.01 -13.9239,-0.337 -18.9609,-2.2132 -30.04,-11.1893 -48.1186,-47.4116 -55.5117,-111.2234 -3.5875,-30.9658 -3.7951,-81.20238 -0.4875,-118 l 0.5842,-6.5 -3.0475,3.5 c -19.8343,22.77934 -42.8836,66.15191 -64.5681,121.5 -9.0056,22.9858 -18.2762,48.9452 -35.5484,99.5411 -18.3838,53.8525 -27.3352,78.261 -30.4707,83.0878 -6.4911,9.992 -22.0836,10.3123 -42.238,0.8676 -9.2599,-4.3394 -20.6553,-12.0006 -21.6308,-14.5427 -1.0722,-2.7942 -0.6875,-6.8744 1.4184,-15.0438 3.2201,-12.4919 8.0941,-40.3053 18.3898,-104.9397 10.5699,-66.3556 11.6343,-73.8267 14.5763,-102.3096 3.0326,-29.36053 12.9101,-141.5788 12.4981,-141.99083 -0.4775,-0.47752 -7.9068,23.08603 -22.0167,69.83013 -22.1438,73.35972 -35.6317,114.4159 -49.9563,152.0626 -41.8608,110.0152 -85.3113,169.9703 -131.03074,180.8028 -8.66531,2.0531 -28.23618,3.0279 -40.71133,2.0278 -45.3057,-3.632 -78.50981,-28.625 -96.28415,-72.4739 C 803.61014,1109.4737 807.5369,1020.7224 837.97601,931.7336 880.07128,808.66805 960.13602,726.61275 1034.5,730.32367 c 14.865,0.74179 23.2802,3.59711 33.6334,11.41205 16.4179,12.39269 24.9088,39.06593 21.8898,68.76428 -5.8185,57.23799 -39.8343,119.46119 -97.52108,178.3896 -25.69678,26.2499 -56.13373,51.7932 -85.25212,71.5454 l -7.25,4.918 0.0155,6.0735 c 0.0279,10.944 1.97955,35.8886 3.52657,45.0735 5.72243,33.9749 17.9712,56.2089 35.82617,65.0317 13.35194,6.5976 27.01334,6.754 40.45699,0.4629 51.83777,-24.2578 114.00567,-153.7308 178.74277,-372.25605 10.2702,-34.6677 13.3586,-41.97412 22.4879,-53.20078 8.5612,-10.52795 13.9795,-13.88213 26.9395,-16.6769 6.2328,-1.34407 12.5543,-3.86113 23.6645,-9.42255 16.4712,-8.24498 19.7989,-8.91474 22.0522,-4.43832 2.2951,4.55948 1.5214,27.71214 -2.7571,82.5 -3.1736,40.63925 -11.7427,136.5409 -14.5154,162.44922 -1.3802,12.89707 -2.3796,24.12387 -2.2208,24.94843 0.2996,1.5555 2.3006,-2.5304 31.7831,-64.89765 34.4404,-72.85529 47.3444,-98.36867 67.1856,-132.83696 24.2698,-42.1617 59.3242,-88.3596 71.5294,-94.26805 4.2183,-2.04203 5.1061,-2.13523 10.1875,-1.0694 12.344,2.58919 31.5067,14.44694 38.8002,24.0093 4.6563,6.10485 4.4067,9.51421 -1.6343,22.32116 -26.4103,55.98977 -49.0391,149.35388 -56.1595,231.70835 -1.7044,19.7125 -0.6978,57.5437 1.9205,72.1828 7.0612,39.4786 23.3238,50.5079 43.1783,29.2834 7.2592,-7.7602 10.7392,-12.7944 15.8236,-22.8907 13.6935,-27.192 19.5516,-52.0244 31.1353,-131.98103 12.5272,-86.46941 27.692,-168.48179 51.1835,-276.80425 4.3948,-20.26495 7.7928,-37.04317 7.551,-37.28493 -0.2417,-0.24176 -8.2613,0.23549 -17.8213,1.06056 -63.1292,5.44835 -163.4135,8.58896 -182.5747,5.71771 -41.5072,-6.21975 -52.9648,-22.85269 -49.3547,-71.64796 1.3026,-17.60624 2.4729,-24.88859 5.1488,-32.04056 3.5311,-9.43783 8.7526,-12.78631 13.3344,-8.55123 6.9957,6.46615 83.7516,11.00194 138.1226,8.16216 36.0698,-1.88391 115.7165,-9.2823 118.2067,-10.98024 1.0365,-0.7067 26.3192,-103.47788 30.1919,-122.72619 3.0332,-15.07592 4.9133,-18.17888 12.6212,-20.83059 3.365,-1.15763 4.4193,-1.13542 7.4221,0.15639 9.1325,3.92876 16.0241,5.67664 35,8.8769 23.5458,3.97095 28.8624,5.49566 33.567,9.6263 6.0761,5.33492 6.0402,7.06988 -0.6753,32.602 -8.3226,31.64234 -12.334,46.31217 -17.4625,63.86135 -2.436,8.33595 -4.4292,15.33359 -4.4292,15.55029 0,0.21671 8.4375,-0.63344 18.75,-1.88921 80.0196,-9.74416 122.3099,-12.65693 165.4256,-11.39379 l 19.6756,0.57642 5.8244,4.10105 c 12.7102,8.94942 17.8295,9.96393 39.6741,7.86239 19.4376,-1.86998 29.756,-1.84739 37.161,0.0813 7.5045,1.9547 9.4893,3.7242 9.4893,8.46016 0,4.52137 -3.2734,9.28275 -11.7944,17.15574 -5.079,4.69269 -7.9717,6.37772 -16.9161,9.85379 -76.8093,29.85034 -168.0185,53.86401 -263.7895,69.45086 -15.4,2.50636 -29.4371,4.79263 -31.1936,5.08058 -1.8278,0.29964 -3.4134,1.25717 -3.7075,2.23882 -2.3071,7.70242 -15.4115,58.37501 -23.1492,89.51397 -29.1166,117.17548 -47.8191,220.19062 -57.4066,316.20124 -1.0985,11 -2.511,24.95 -3.139,31 -1.4287,13.7639 -0.5901,46.4043 1.54,59.9406 5.0213,31.9095 16.0823,57.1677 32.935,75.2082 9.0023,9.6368 16.6726,15.3965 28.1209,21.1165 22.2245,11.1043 47.9307,14.696 73.6506,10.2908 16.5711,-2.8382 28.0737,-6.9127 48.8494,-17.3035 l 18.5,-9.2526 h 9.1249 c 8.9094,0 9.2518,-0.088 14.5,-3.7317 2.9563,-2.0524 10.3251,-8.0504 16.3751,-13.3287 11.8614,-10.3485 20.1467,-16.4396 22.3617,-16.4396 2.4392,0 0.4906,5.5975 -5.5127,15.8358 -7.9541,13.5655 -13.0303,19.9754 -26.2865,33.1931 -31.6344,31.5425 -77.2997,55.2416 -120.5594,62.5671 -8.7791,1.4866 -39.5101,2.6627 -46.5031,1.7796 z M 920.4202,1001.75 c 30.58355,-30.64097 57.99769,-69.86415 80.5514,-115.25 16.1863,-32.57256 24.0284,-56.13812 24.0284,-72.20555 0,-13.09574 -4.1807,-17.89032 -14.9103,-17.09982 -42.36329,3.12108 -91.28843,101.7454 -105.9397,213.55537 -0.49659,3.7896 -0.45135,6.25 0.1149,6.25 0.51363,0 7.78352,-6.8625 16.1553,-15.25 z m 781.8027,133.3151 c -38.9388,-9.5658 -60.9418,-47.9679 -65.2384,-113.8612 -2.1818,-33.46066 2.5864,-82.46702 12.5159,-128.63608 9.1892,-42.72688 21.3622,-77.97664 39.4966,-114.37171 18.6088,-37.34734 36.8048,-63.09721 63.445,-89.78371 22.7424,-22.7819 40.5465,-36.03558 63.1452,-47.0066 23.0827,-11.20592 43.4688,-16.00804 64.2305,-15.13005 21.9884,0.92986 34.7591,6.04634 47.7188,19.11821 9.1597,9.23887 13.0862,15.95734 17.0264,29.13293 2.3714,7.92977 2.6982,10.77536 2.8103,24.47311 0.092,11.25619 -0.1901,15.44001 -1.0305,15.28089 -0.6366,-0.12052 -4.9116,-1.24552 -9.5,-2.5 -7.1442,-1.95321 -10.6413,-2.27033 -24.3427,-2.20741 -17.4055,0.0799 -23.023,1.13156 -39.0308,7.30682 -58.8008,22.68336 -122.1719,105.52556 -155.7612,203.6197 -13.2899,38.81204 -18.7271,68.04995 -18.6882,100.4939 0.028,23.558 2.2008,36.7334 8.0292,48.6944 5.4275,11.1379 11.6293,14.2585 23.4223,11.7854 48.0096,-10.0677 96.7814,-83.56821 139.6612,-210.4737 10.5277,-31.1573 16.4338,-51.71824 20.3947,-71 1.9772,-9.625 6.4925,-28.93394 10.0339,-42.90875 3.5414,-13.97482 6.4389,-25.53891 6.4389,-25.69798 0,-0.15908 1.2375,0.12409 2.75,0.62925 1.5125,0.50517 8.375,1.84877 15.25,2.98577 14.607,2.41573 25.6217,5.24792 30.9179,7.94982 5.6478,2.88129 10.0821,8.40368 10.0821,12.55602 0,1.8945 -3.1331,19.54134 -6.9624,39.21521 -16.9485,87.07714 -21.817,122.45752 -22.7459,165.30216 -0.7635,35.21457 1.5074,52.7036 8.6916,66.9354 7.1859,14.2352 16.3269,19.2807 30.8057,17.0036 26.1136,-4.107 45.1008,-28.3586 51.6499,-65.9705 1.0168,-5.83976 2.0121,-20.12607 2.5833,-37.07951 2.3977,-71.17599 13.57,-150.52695 39.5306,-280.76459 3.5459,-17.78925 6.4472,-32.46659 6.4472,-32.6163 0,-0.14972 -4.1625,0.81431 -9.25,2.14229 -28.5056,7.44075 -61.6605,12.68333 -80.25,12.68944 -30.4845,0.01 -45.6976,-9.61846 -51.9369,-32.87133 -3.7107,-13.8294 -2.9236,-41.52279 1.5603,-54.89432 3.8067,-11.35212 8.5928,-15.09983 13.4528,-10.53409 7.1932,6.75766 49.7625,11.23364 85.9238,9.03452 19.489,-1.18521 55.7747,-5.03983 57.5041,-6.10864 1.1865,-0.73331 43.4878,-169.89367 47.6303,-190.47103 2.8406,-14.11031 3.9925,-16.24767 10.5758,-19.62376 4.6946,-2.40757 6.4219,-2.38768 11.3284,0.13046 6.1857,3.1747 12.3944,4.68141 34.6902,8.41853 11.7865,1.97561 22.898,4.40765 25.7572,5.63767 6.6934,2.87939 11.014,7.83463 11.014,12.63167 0,4.39944 0.9103,1.04814 -25.1549,92.60935 -11.5598,40.60669 -20.8086,74.03947 -20.553,74.29506 0.2556,0.25559 11.8819,-2.0607 25.8363,-5.14731 46.8341,-10.35937 88.276,-20.86847 179.117,-45.42173 40.2339,-10.87475 48.9049,-12.75871 62.8279,-13.65071 15.1302,-0.96933 21.4063,1.59457 19.0416,7.77886 -1.1338,2.96514 -3.2357,4.73044 -10.4725,8.79525 -6.4819,3.64078 -9.1593,7.1574 -15.7576,20.69637 l -3.9846,8.17614 -11.7001,4.93597 c -47.3541,19.9775 -169.6817,60.63144 -251.1469,83.4653 l -15.4467,4.32957 -1.6883,6.45843 c -36.8736,141.06175 -57.892,251.64719 -69.4095,365.18928 -3.581,35.30186 -3.223,45.12616 2.0513,56.29526 6.0872,12.8907 16.395,17.6434 30.4725,14.0502 23.0769,-5.8903 40.338,-29.4352 52.4635,-71.5624 4.8126,-16.72022 6.7106,-26.67202 12.0059,-62.95107 10.1807,-69.74877 18.9212,-108.17555 33.4678,-147.13718 11.6945,-31.32269 21.3911,-52.31877 35.5113,-76.89251 17.2224,-29.97282 32.8742,-50.6967 54.4032,-72.03314 19.068,-18.89744 34.6328,-30.00512 53.6158,-38.26235 30.3682,-13.20959 67.8166,-14.08809 90.5825,-2.12498 20.4834,10.76375 30.927,34.10304 28.4682,63.62063 l -0.7046,8.45933 -9.1731,-2.5236 c -8.1235,-2.23488 -11.1751,-2.53101 -26.673,-2.58837 -16.1716,-0.0598 -18.2547,0.14547 -27.4422,2.70473 -24.4375,6.80726 -47.1968,21.65602 -67.2316,43.86351 -43.031,47.69764 -75.6718,130.70553 -84.9407,216.01025 -2.3246,21.39441 -2.2954,55.52006 0.061,71.34085 3.5585,23.8901 10.5421,41.6193 20.1973,51.2744 7.6625,7.6625 12.7276,9.7266 23.856,9.7214 8.2749,0 9.6042,-0.2943 16.5,-3.6059 15.2131,-7.3059 26.8241,-18.541 40.1912,-38.8899 25.3612,-38.60789 45.3515,-97.65741 53.4884,-158 1.3836,-10.2607 1.8194,-19.9786 1.8161,-40.5 0,-28.33155 -0.7548,-35.30082 -5.5577,-51.62716 -4.207,-14.30099 -13.9411,-28.8669 -22.2991,-33.36799 l -3.5934,-1.93513 4.7273,-2.94879 c 10.6188,-6.62391 38.4009,-22.21612 48.8682,-27.42647 l 11.18,-5.56513 6.9826,1.68534 c 14.4607,3.49029 28.1126,1.69451 43.8725,-5.77106 16.7347,-7.92727 30.098,-17.98976 61.8404,-46.56524 41.3704,-37.24284 54.2589,-45.49093 72.9835,-46.7064 20.0037,-1.2985 34.1059,7.85379 41.5135,26.94211 5.5497,14.30107 6.4865,21.63532 6.4865,50.78592 0,34.58775 -1.9958,52.64966 -13.4809,122 -3.2336,19.525 -6.3794,39.1 -6.9908,43.5 -0.6114,4.4 -1.3265,9.35 -1.5891,11 -0.6562,4.12308 11.7548,-20.45894 30.2685,-59.95156 57.3316,-122.29775 89.1517,-177.138 126.8553,-218.62825 13.0559,-14.36715 17.0505,-16.00976 28.9648,-11.91062 17.5478,6.03732 35.2912,20.1784 37.0444,29.52343 0.7418,3.9545 0.4118,4.60634 -10.3726,20.48585 -19.4211,28.59658 -35.9098,70.59232 -51.2305,130.48115 -14.7196,57.53902 -20.3101,97.84563 -20.3195,146.5 -0.01,50.7436 7.7726,90.56533 24.3312,124.5 16.8912,34.6164 38.7847,55.3868 67.5685,64.1028 7.7537,2.3478 10.7561,2.719 22.4507,2.7754 14.2511,0.069 20.4286,-0.8694 33.5,-5.0876 31.1162,-10.0415 63.8798,-34.0745 88.9577,-65.25281 24.7655,-30.79011 39.1533,-54.82571 74.4792,-124.42143 8.3427,-16.43601 19.6002,-38.03601 25.0166,-48 l 9.8481,-18.11636 -1.3436,-7.06471 c -2.6791,-14.08627 -9.5793,-60.9071 -15.4647,-104.93529 -3.3084,-24.75 -7.1742,-52.65 -8.5906,-62 -6.287,-41.50167 -13.6013,-68.50931 -20.6341,-76.19069 l -2.0058,-2.19068 10.2822,-10.56828 c 22.869,-23.50546 45.4827,-37.3167 67.455,-41.19788 17.3127,-3.05812 29.8963,2.24051 35.5191,14.95612 1.9132,4.32673 2.2664,8.13455 3.5243,38 2.1732,51.59467 6.4839,119.64984 8.0136,126.51402 0.4457,2.00012 1.5364,0.88932 7.8555,-8 33.7719,-47.50882 72.9124,-94.19164 110.5603,-131.86519 38.8563,-38.88284 79.6204,-72.32606 90.9109,-74.58415 5.9631,-1.19262 4.1514,2.27942 -10.7485,20.59959 -7.1509,8.79231 -11.921,15.89952 -16.1654,24.08534 -7.3442,14.16449 -14.3128,23.00571 -41.0419,52.07139 -35.3721,38.46428 -51.5629,57.09715 -72.4437,83.37041 -28.9016,36.36552 -63.4863,85.0595 -63.4809,89.37879 0.01,5.05347 6.0431,44.30952 9.5158,61.87886 11.5966,58.66985 26.9741,88.62697 45.4937,88.62697 13.5214,0 33.4095,-19.14279 53.5833,-51.57523 7.4504,-11.97771 21.5244,-39.4286 24.5118,-47.80939 2.4908,-6.98784 3.8661,-8.47282 13.1975,-14.25 6.5444,-4.05166 10.0054,-4.62149 13.4434,-2.21339 13.5115,9.46382 -8.3903,72.81373 -42.5118,122.96339 -18.7648,27.5793 -36.7482,46.45005 -56.5284,59.31794 -23.3188,15.16982 -48.4372,16.82381 -70.4129,4.63654 -8.6488,-4.79643 -23.0999,-19.15934 -30.1385,-29.95448 -10.1074,-15.50185 -21.3969,-41.36211 -28.2996,-64.82407 -1.242,-4.22176 -2.5056,-7.67408 -2.8079,-7.67182 -0.3024,0.002 -9.5114,17.21476 -20.4646,38.25 -52.807,101.41432 -74.1653,136.09939 -106.5593,173.04769 -37.0166,42.2209 -74.4057,64.6629 -117.9422,70.7921 -12.4493,1.7526 -35.0178,0.6108 -48.0912,-2.4331 -43.306,-10.083 -83.4619,-37.6486 -109.0497,-74.8586 -25.0816,-36.4739 -35.205,-86.66123 -32.7882,-162.54822 1.2665,-39.76933 7.2191,-88.50047 16.1871,-132.51784 2.7669,-13.58077 2.7232,-13.58651 -6.7248,-0.88408 -18.9367,25.45945 -40.0583,67.8325 -60.3885,121.14794 -8.2063,21.52087 -15.9274,43.37207 -34.628,98 -19.5381,57.0743 -25.907,74.0138 -29.0395,77.2365 -6.4105,6.5951 -25.2041,7.6925 -36.3441,2.1221 -3.1442,-1.5722 -6.2067,-3.868 -6.8055,-5.1017 -2.1102,-4.3476 -4.6738,-6.1694 -10.273,-7.3008 -11.4371,-2.311 -11.8806,-3.6997 -7.2441,-22.6867 3.504,-14.3493 8.5247,-43.13735 18.6208,-106.7694 4.1887,-26.4 11.1647,-70.05 15.502,-97 15.0689,-93.62942 20.2449,-133.39474 20.3058,-156 0.036,-13.30622 -0.2173,-15.65782 -2.2413,-20.82559 -4.7934,-12.23858 -16.2281,-13.06177 -27.6372,-1.98962 -5.1776,5.02475 -10.5746,12.17191 -24.402,32.31521 -16.7355,24.37966 -22.9617,32.09463 -37.7103,46.72662 L 2511,728.95324 l -0.01,16.77338 c -0.038,62.0989 -16.3512,129.02533 -46.5001,190.77338 -18.8575,38.62204 -39.2509,67.6064 -64.8729,92.2011 -13.7692,13.2171 -26.6176,22.506 -41.1167,29.7257 -18.2896,9.1072 -33.5731,12.5732 -55.4414,12.5732 -29.219,0 -50.431,-8.1634 -68.6222,-26.4092 -14.0792,-14.1214 -21.9862,-27.8056 -29.1237,-50.4028 l -3.781,-11.97036 -5.1866,14.95148 c -11.7768,33.94958 -28.694,62.34538 -48.4806,81.37558 -10.2964,9.9029 -16.357,14.3317 -25.8138,18.8638 -9.8311,4.7114 -16.3746,5.9175 -29.2309,5.3878 -9.8463,-0.4057 -11.3111,-0.7353 -18.0187,-4.0538 -9.0612,-4.483 -14.5599,-9.1337 -20.1962,-17.0816 -8.3209,-11.7335 -13.8776,-25.2098 -17.9582,-43.5528 l -2.3118,-10.3919 -4.7945,8.8919 c -17.9174,33.2294 -40.1564,55.8052 -62.5404,63.4875 -9.0636,3.1107 -23.7127,3.7281 -33.3167,1.4043 -34.7302,-8.4035 -56.2136,-43.9334 -62.2168,-102.89645 -0.7898,-7.7569 -1.5572,-17.02845 -1.7055,-20.60345 l -0.2695,-6.5 -2.9494,6.5 c -6.2299,13.72957 -22.9348,46.7873 -28.7577,56.9091 -16.7721,29.1549 -33.5118,51.908 -51.2382,69.6445 -18.0129,18.0231 -32.3737,27.3059 -47.9121,30.9703 -8.604,2.029 -27.2401,1.7942 -36.4112,-0.4588 z M 2942.3412,990.90444 c -20.5376,-3.43068 -36.1246,-18.76053 -44.1993,-43.47028 -12.1498,-37.1799 -10.4468,-97.25417 4.9733,-175.43416 10.3077,-52.26034 27.3541,-114.93955 47.1854,-173.5 10.958,-32.35817 11.2952,-33.1293 17.0794,-39.06487 4.991,-5.12151 5.2964,-5.27005 12.12,-5.89462 15.9126,-1.45649 37.6987,-4.95959 51.4037,-8.26546 8.0279,-1.93649 17.5857,-3.73863 21.2395,-4.00478 5.7981,-0.42234 6.9112,-0.21588 8.75,1.62292 1.1587,1.15874 2.1068,3.16062 2.1068,4.44861 0,1.28799 -6.3418,22.10049 -14.0929,46.25 -32.1269,100.09558 -37.6548,117.81794 -46.2907,148.4082 -13.1802,46.68759 -21.199,83.50495 -27.5516,126.5 -3.8252,25.88969 -4.5912,37.12099 -3.1601,46.33279 3.2407,20.86085 14.9651,25.75346 36.5953,15.27126 10.1301,-4.90914 17.6757,-10.25067 30.672,-21.71275 17.6795,-15.59236 26.4447,-20.61419 30.339,-17.3822 2.8328,2.35102 1.849,9.85235 -2.4611,18.76504 -8.069,16.68566 -19.7696,31.58544 -36.3752,46.32093 -30.4795,27.04701 -61.5367,39.28562 -88.3335,34.80937 z"
     id="path3723"
     inkscape:connector-curvature="0" />
</svg>
